<svg width="72" height="72" viewBox="0 0 72 72" fill="none" xmlns="http://www.w3.org/2000/svg">
<path fill-rule="evenodd" clip-rule="evenodd" d="M24.6938 1.7442C23.5688 2.16608 22.5281 3.53014 21.5297 5.9067C20.5313 8.2692 19.6172 10.1536 19.1391 10.7864C18.5906 11.5317 17.5078 12.1645 16.2844 12.4458C15.7641 12.5583 14.2594 12.7551 12.9234 12.8676C8.62031 13.2473 7.39688 13.7114 6.56719 15.2583C6.075 16.1723 6.14531 18.2114 6.79219 20.8833C8.14219 26.5786 8.01562 27.0005 3.65625 30.8395C0.73125 33.3989 0 34.4395 0 35.9723C0 37.5473 0.73125 38.602 3.65625 41.1614C8.00156 44.9864 8.12813 45.3942 6.80625 51.0473C6.01875 54.3661 6.01875 55.9692 6.79219 57.1083C7.59375 58.3036 9.05625 58.7958 12.8813 59.1333C16.875 59.4848 18.1266 59.9067 19.125 61.2426C19.7859 62.1286 20.0672 62.663 21.2484 65.4333C22.3313 67.9786 22.8375 68.8223 23.7234 69.6098C25.3406 71.0301 26.8313 70.7348 31.0219 68.1895C35.5641 65.4333 36.4219 65.4333 41.0625 68.2317C43.2422 69.5395 44.0156 69.9333 44.9859 70.2286C46.3922 70.6364 47.2922 70.4676 48.2766 69.5958C49.1344 68.8504 49.725 67.852 50.8078 65.3067C51.9609 62.6348 52.2281 62.1145 52.875 61.2426C53.8734 59.9067 55.0828 59.4989 59.1047 59.1333C62.8875 58.7958 64.2937 58.3458 65.1516 57.2067C66.0656 55.9973 66.0375 54.802 65.0109 50.3442C64.3922 47.6583 64.3219 45.9989 64.7719 45.0005C65.1375 44.1989 66.3328 42.9051 68.1328 41.3583C71.1844 38.7426 72 37.6036 72 35.9723C71.9859 34.4395 71.1703 33.2583 68.5547 31.0083C66.3469 29.1239 65.1656 27.8723 64.7859 27.0426C64.3219 26.002 64.3781 24.3848 65.0109 21.6567C66.0375 17.1989 66.0656 16.0036 65.1516 14.7942C64.2937 13.6551 62.8875 13.2051 59.1047 12.8676C55.0828 12.502 53.8734 12.0942 52.875 10.7583C52.2281 9.88639 51.9609 9.36608 50.8078 6.69421C49.7391 4.19108 49.1625 3.19264 48.3188 2.4192C46.7438 0.9567 45.1406 1.26608 40.9641 3.82545C36.3938 6.62389 35.6906 6.59577 30.3891 3.45983C29.2641 2.79889 27.9984 2.12389 27.5766 1.95514C26.55 1.57545 25.3969 1.49108 24.6938 1.7442ZM48.0032 23.9265C49.4677 25.391 49.4677 27.7653 48.0032 29.2298L41.2681 35.9649L48.0032 42.6999C49.4677 44.1644 49.4677 46.5388 48.0032 48.0032C46.5387 49.4677 44.1644 49.4677 42.6999 48.0032L35.9648 41.2682L29.2298 48.0032C27.7653 49.4677 25.3909 49.4677 23.9265 48.0032C22.462 46.5388 22.462 44.1644 23.9265 42.6999L30.6615 35.9649L23.9265 29.2298C22.462 27.7653 22.462 25.391 23.9265 23.9265C25.3909 22.462 27.7653 22.462 29.2298 23.9265L35.9648 30.6616L42.6999 23.9265C44.1644 22.462 46.5387 22.462 48.0032 23.9265Z" fill="white"/>
</svg>
